<mxfile host="drawio-plugin" modified="2025-01-03T07:46:21.671Z" agent="Mozilla/5.0 (X11; Linux x86_64) AppleWebKit/537.36 (KHTML, like Gecko) Chrome/122.0.0.0 Safari/537.36" etag="0FOfC96UTq9iMRT3EEYH" version="22.1.22" type="embed">
  <diagram id="vevjfazSHYjjR7n9vyjY" name="Page-1">
    <mxGraphModel dx="2283" dy="1117" grid="1" gridSize="10" guides="1" tooltips="1" connect="1" arrows="1" fold="1" page="1" pageScale="1" pageWidth="827" pageHeight="1169" math="0" shadow="0">
      <root>
        <mxCell id="0" />
        <mxCell id="1" parent="0" />
        <mxCell id="95" style="edgeStyle=orthogonalEdgeStyle;rounded=1;orthogonalLoop=1;jettySize=auto;html=1;exitX=0.5;exitY=0;exitDx=0;exitDy=0;entryX=1;entryY=0.5;entryDx=0;entryDy=0;strokeColor=#788AA3;fontColor=#000000;fillColor=#B2C9AB;labelBackgroundColor=none;fontSize=14;" parent="1" source="88" target="94" edge="1">
          <mxGeometry relative="1" as="geometry" />
        </mxCell>
        <mxCell id="166" value="create" style="edgeLabel;html=1;align=center;verticalAlign=middle;resizable=0;points=[];fontSize=14;rounded=1;" parent="95" vertex="1" connectable="0">
          <mxGeometry x="0.3848" y="-1" relative="1" as="geometry">
            <mxPoint x="-15" y="1" as="offset" />
          </mxGeometry>
        </mxCell>
        <mxCell id="108" style="edgeStyle=orthogonalEdgeStyle;rounded=1;orthogonalLoop=1;jettySize=auto;html=1;exitX=1;exitY=0.5;exitDx=0;exitDy=0;entryX=0;entryY=0.5;entryDx=0;entryDy=0;strokeColor=#788AA3;fontColor=#000000;fillColor=#B2C9AB;labelBackgroundColor=none;fontSize=14;" parent="1" source="88" target="116" edge="1">
          <mxGeometry relative="1" as="geometry" />
        </mxCell>
        <mxCell id="168" value="publish" style="edgeLabel;html=1;align=center;verticalAlign=middle;resizable=0;points=[];fontSize=14;rounded=1;" parent="108" vertex="1" connectable="0">
          <mxGeometry y="-2" relative="1" as="geometry">
            <mxPoint as="offset" />
          </mxGeometry>
        </mxCell>
        <mxCell id="139" style="edgeStyle=orthogonalEdgeStyle;rounded=1;orthogonalLoop=1;jettySize=auto;html=1;strokeColor=#788AA3;fontColor=#000000;fillColor=#B2C9AB;dashed=1;labelBackgroundColor=none;fontSize=14;exitX=0;exitY=0.5;exitDx=0;exitDy=0;" parent="1" source="111" target="140" edge="1">
          <mxGeometry relative="1" as="geometry">
            <mxPoint x="-390" y="510" as="targetPoint" />
          </mxGeometry>
        </mxCell>
        <mxCell id="186" value="report sucess" style="edgeLabel;html=1;align=center;verticalAlign=middle;resizable=0;points=[];rounded=1;" parent="139" vertex="1" connectable="0">
          <mxGeometry x="-0.0593" y="1" relative="1" as="geometry">
            <mxPoint as="offset" />
          </mxGeometry>
        </mxCell>
        <mxCell id="88" value="SegmentIO" style="rounded=1;whiteSpace=wrap;html=1;labelBackgroundColor=none;strokeWidth=5;fillColor=#d5e8d4;strokeColor=#82b366;fontSize=14;" parent="1" vertex="1">
          <mxGeometry x="-450" y="330" width="120" height="60" as="geometry" />
        </mxCell>
        <mxCell id="91" style="edgeStyle=orthogonalEdgeStyle;rounded=1;orthogonalLoop=1;jettySize=auto;html=1;strokeColor=#788AA3;fontColor=#000000;fillColor=#B2C9AB;labelBackgroundColor=none;fontSize=14;" parent="1" source="90" target="88" edge="1">
          <mxGeometry relative="1" as="geometry" />
        </mxCell>
        <mxCell id="90" value="SegmentEvent" style="rounded=1;whiteSpace=wrap;html=1;strokeColor=#82b366;fillColor=#d5e8d4;labelBackgroundColor=none;fontSize=14;" parent="1" vertex="1">
          <mxGeometry x="-770" y="330" width="120" height="60" as="geometry" />
        </mxCell>
        <mxCell id="96" style="edgeStyle=orthogonalEdgeStyle;rounded=1;orthogonalLoop=1;jettySize=auto;html=1;strokeColor=#788AA3;fontColor=#000000;fillColor=#B2C9AB;labelBackgroundColor=none;fontSize=14;" parent="1" source="94" target="90" edge="1">
          <mxGeometry relative="1" as="geometry" />
        </mxCell>
        <mxCell id="167" value="inject" style="edgeLabel;html=1;align=center;verticalAlign=middle;resizable=0;points=[];fontSize=14;rounded=1;" parent="96" vertex="1" connectable="0">
          <mxGeometry x="-0.4852" y="3" relative="1" as="geometry">
            <mxPoint as="offset" />
          </mxGeometry>
        </mxCell>
        <mxCell id="94" value="SegmentEventGenerator" style="rounded=1;whiteSpace=wrap;html=1;strokeColor=#82b366;fillColor=#d5e8d4;dashed=1;labelBackgroundColor=none;fontSize=14;" parent="1" vertex="1">
          <mxGeometry x="-640" y="190" width="180" height="60" as="geometry" />
        </mxCell>
        <mxCell id="101" style="edgeStyle=orthogonalEdgeStyle;rounded=1;orthogonalLoop=1;jettySize=auto;html=1;strokeColor=#788AA3;fontColor=#000000;fillColor=#B2C9AB;labelBackgroundColor=none;fontSize=14;" parent="1" source="100" target="94" edge="1">
          <mxGeometry relative="1" as="geometry" />
        </mxCell>
        <mxCell id="100" value="Business Implement" style="rounded=1;whiteSpace=wrap;html=1;labelBackgroundColor=none;fontSize=14;" parent="1" vertex="1">
          <mxGeometry x="-610" y="80" width="120" height="60" as="geometry" />
        </mxCell>
        <mxCell id="103" style="edgeStyle=orthogonalEdgeStyle;rounded=1;orthogonalLoop=1;jettySize=auto;html=1;entryX=0.5;entryY=0;entryDx=0;entryDy=0;strokeColor=#788AA3;fontColor=#000000;fillColor=#B2C9AB;labelBackgroundColor=none;fontSize=14;" parent="1" source="102" target="88" edge="1">
          <mxGeometry relative="1" as="geometry" />
        </mxCell>
        <mxCell id="102" value="Business start" style="rounded=1;whiteSpace=wrap;html=1;labelBackgroundColor=none;fontSize=14;" parent="1" vertex="1">
          <mxGeometry x="-450" y="80" width="120" height="60" as="geometry" />
        </mxCell>
        <mxCell id="118" style="edgeStyle=orthogonalEdgeStyle;rounded=1;orthogonalLoop=1;jettySize=auto;html=1;exitX=1;exitY=0.5;exitDx=0;exitDy=0;strokeColor=#788AA3;fontColor=#000000;fillColor=#B2C9AB;entryX=0;entryY=0.5;entryDx=0;entryDy=0;labelBackgroundColor=none;fontSize=14;" parent="1" source="116" target="126" edge="1">
          <mxGeometry relative="1" as="geometry">
            <mxPoint x="-30" y="480" as="targetPoint" />
          </mxGeometry>
        </mxCell>
        <mxCell id="182" value="downgrade" style="edgeLabel;html=1;align=center;verticalAlign=middle;resizable=0;points=[];fontSize=14;rounded=1;" parent="118" vertex="1" connectable="0">
          <mxGeometry x="0.0133" y="-5" relative="1" as="geometry">
            <mxPoint x="-1" y="-15" as="offset" />
          </mxGeometry>
        </mxCell>
        <mxCell id="200" value="buffer" style="edgeLabel;html=1;align=center;verticalAlign=middle;resizable=0;points=[];" vertex="1" connectable="0" parent="118">
          <mxGeometry x="0.1267" y="1" relative="1" as="geometry">
            <mxPoint x="-6" y="11" as="offset" />
          </mxGeometry>
        </mxCell>
        <mxCell id="107" value="Store" style="rounded=1;whiteSpace=wrap;html=1;strokeColor=#82b366;fillColor=#d5e8d4;dashed=1;labelBackgroundColor=none;fontSize=14;" parent="1" vertex="1">
          <mxGeometry x="-140" y="80" width="120" height="60" as="geometry" />
        </mxCell>
        <mxCell id="128" style="edgeStyle=orthogonalEdgeStyle;rounded=1;orthogonalLoop=1;jettySize=auto;html=1;exitX=0.5;exitY=1;exitDx=0;exitDy=0;strokeColor=#788AA3;fontColor=#000000;fillColor=#B2C9AB;labelBackgroundColor=none;fontSize=14;" parent="1" source="111" target="129" edge="1">
          <mxGeometry relative="1" as="geometry">
            <mxPoint x="-47" y="440" as="targetPoint" />
          </mxGeometry>
        </mxCell>
        <mxCell id="173" value="get client and report" style="edgeLabel;html=1;align=center;verticalAlign=middle;resizable=0;points=[];fontSize=14;rounded=1;" parent="128" vertex="1" connectable="0">
          <mxGeometry x="-0.0909" relative="1" as="geometry">
            <mxPoint as="offset" />
          </mxGeometry>
        </mxCell>
        <mxCell id="195" style="edgeStyle=orthogonalEdgeStyle;rounded=1;orthogonalLoop=1;jettySize=auto;html=1;entryX=0.5;entryY=1;entryDx=0;entryDy=0;" edge="1" parent="1" source="111" target="201">
          <mxGeometry relative="1" as="geometry">
            <mxPoint x="230" y="390" as="targetPoint" />
          </mxGeometry>
        </mxCell>
        <mxCell id="199" value="downgrade or log" style="edgeLabel;html=1;align=center;verticalAlign=middle;resizable=0;points=[];fontSize=14;" vertex="1" connectable="0" parent="195">
          <mxGeometry x="-0.6198" y="-1" relative="1" as="geometry">
            <mxPoint x="7" y="-1" as="offset" />
          </mxGeometry>
        </mxCell>
        <mxCell id="111" value="SegmentEventReporter" style="rounded=1;whiteSpace=wrap;html=1;strokeColor=#82b366;fillColor=#d5e8d4;labelBackgroundColor=none;fontSize=14;" parent="1" vertex="1">
          <mxGeometry x="-265" y="480" width="150" height="60" as="geometry" />
        </mxCell>
        <mxCell id="116" value="distributedStore" style="rounded=1;whiteSpace=wrap;html=1;strokeColor=#82b366;fillColor=#d5e8d4;labelBackgroundColor=none;fontSize=14;" parent="1" vertex="1">
          <mxGeometry x="-250" y="330" width="120" height="60" as="geometry" />
        </mxCell>
        <mxCell id="193" style="edgeStyle=elbowEdgeStyle;rounded=1;orthogonalLoop=1;jettySize=auto;html=1;entryX=0.5;entryY=0;entryDx=0;entryDy=0;elbow=vertical;" edge="1" parent="1" source="126" target="111">
          <mxGeometry relative="1" as="geometry">
            <Array as="points">
              <mxPoint x="-80" y="450" />
            </Array>
          </mxGeometry>
        </mxCell>
        <mxCell id="194" value="timeout or fillfull" style="edgeLabel;html=1;align=center;verticalAlign=middle;resizable=0;points=[];fontSize=14;" vertex="1" connectable="0" parent="193">
          <mxGeometry x="-0.6126" y="-1" relative="1" as="geometry">
            <mxPoint x="-80" as="offset" />
          </mxGeometry>
        </mxCell>
        <mxCell id="126" value="bufferStore" style="rounded=1;whiteSpace=wrap;html=1;strokeColor=#82b366;fillColor=#d5e8d4;labelBackgroundColor=none;fontSize=14;" parent="1" vertex="1">
          <mxGeometry x="-30" y="330" width="120" height="60" as="geometry" />
        </mxCell>
        <mxCell id="134" style="edgeStyle=orthogonalEdgeStyle;rounded=1;orthogonalLoop=1;jettySize=auto;html=1;strokeColor=#788AA3;fontColor=#000000;fillColor=#B2C9AB;entryX=0;entryY=0.5;entryDx=0;entryDy=0;labelBackgroundColor=none;fontSize=14;" parent="1" source="129" target="135" edge="1">
          <mxGeometry relative="1" as="geometry">
            <mxPoint x="238" y="510" as="targetPoint" />
          </mxGeometry>
        </mxCell>
        <mxCell id="174" value="get client instance" style="edgeLabel;html=1;align=center;verticalAlign=middle;resizable=0;points=[];fontSize=14;rounded=1;" parent="134" vertex="1" connectable="0">
          <mxGeometry x="-0.4222" y="-2" relative="1" as="geometry">
            <mxPoint x="25" y="-17" as="offset" />
          </mxGeometry>
        </mxCell>
        <mxCell id="133" style="edgeStyle=orthogonalEdgeStyle;rounded=1;orthogonalLoop=1;jettySize=auto;html=1;entryX=0.5;entryY=1;entryDx=0;entryDy=0;strokeColor=#788AA3;fontColor=#000000;fillColor=#B2C9AB;labelBackgroundColor=none;fontSize=14;" parent="1" source="132" target="129" edge="1">
          <mxGeometry relative="1" as="geometry" />
        </mxCell>
        <mxCell id="176" value="implement" style="edgeLabel;html=1;align=center;verticalAlign=middle;resizable=0;points=[];fontSize=14;rounded=1;" parent="133" vertex="1" connectable="0">
          <mxGeometry x="-0.2018" relative="1" as="geometry">
            <mxPoint as="offset" />
          </mxGeometry>
        </mxCell>
        <mxCell id="129" value="SegmentEventClientRegistry" style="rounded=1;whiteSpace=wrap;html=1;strokeColor=#82b366;fillColor=#d5e8d4;dashed=1;labelBackgroundColor=none;fontSize=14;" parent="1" vertex="1">
          <mxGeometry x="-285" y="595" width="190" height="60" as="geometry" />
        </mxCell>
        <mxCell id="132" value="SpringSegmentEventClientRegistry" style="rounded=1;whiteSpace=wrap;html=1;strokeColor=#82b366;fillColor=#d5e8d4;labelBackgroundColor=none;fontSize=14;" parent="1" vertex="1">
          <mxGeometry x="-306.25" y="700" width="232.5" height="60" as="geometry" />
        </mxCell>
        <mxCell id="135" value="SegmentEventClient" style="rounded=1;whiteSpace=wrap;html=1;strokeColor=#82b366;fillColor=#d5e8d4;dashed=1;labelBackgroundColor=none;fontSize=14;" parent="1" vertex="1">
          <mxGeometry x="30" y="595" width="140" height="60" as="geometry" />
        </mxCell>
        <mxCell id="141" style="edgeStyle=orthogonalEdgeStyle;rounded=1;orthogonalLoop=1;jettySize=auto;html=1;entryX=1;entryY=0.5;entryDx=0;entryDy=0;strokeColor=#788AA3;fontColor=#000000;fillColor=#B2C9AB;exitX=0;exitY=0.5;exitDx=0;exitDy=0;labelBackgroundColor=none;fontSize=14;" parent="1" source="137" target="135" edge="1">
          <mxGeometry relative="1" as="geometry" />
        </mxCell>
        <mxCell id="175" value="default" style="edgeLabel;html=1;align=center;verticalAlign=middle;resizable=0;points=[];fontSize=14;rounded=1;" parent="141" vertex="1" connectable="0">
          <mxGeometry x="-0.0424" y="1" relative="1" as="geometry">
            <mxPoint as="offset" />
          </mxGeometry>
        </mxCell>
        <mxCell id="148" style="edgeStyle=orthogonalEdgeStyle;rounded=1;orthogonalLoop=1;jettySize=auto;html=1;strokeColor=#788AA3;fontColor=#000000;fillColor=#B2C9AB;labelBackgroundColor=none;fontSize=14;" parent="1" source="137" target="149" edge="1">
          <mxGeometry relative="1" as="geometry">
            <mxPoint x="170.5" y="320" as="targetPoint" />
          </mxGeometry>
        </mxCell>
        <mxCell id="137" value="SegmentEventClientHttp" style="rounded=1;whiteSpace=wrap;html=1;strokeColor=#82b366;fillColor=#d5e8d4;labelBackgroundColor=none;fontSize=14;" parent="1" vertex="1">
          <mxGeometry x="213" y="520" width="155" height="60" as="geometry" />
        </mxCell>
        <mxCell id="140" value="MetricsCounter" style="rounded=1;whiteSpace=wrap;html=1;strokeColor=#82b366;fillColor=#d5e8d4;labelBackgroundColor=none;fontSize=14;dashed=1;" parent="1" vertex="1">
          <mxGeometry x="-500" y="480" width="120" height="60" as="geometry" />
        </mxCell>
        <mxCell id="143" style="edgeStyle=orthogonalEdgeStyle;rounded=1;orthogonalLoop=1;jettySize=auto;html=1;exitX=0;exitY=0.5;exitDx=0;exitDy=0;entryX=1;entryY=0.5;entryDx=0;entryDy=0;strokeColor=#788AA3;fontColor=#000000;fillColor=#B2C9AB;labelBackgroundColor=none;fontSize=14;" parent="1" source="142" target="135" edge="1">
          <mxGeometry relative="1" as="geometry" />
        </mxCell>
        <mxCell id="153" style="edgeStyle=orthogonalEdgeStyle;rounded=1;orthogonalLoop=1;jettySize=auto;html=1;entryX=1;entryY=0.5;entryDx=0;entryDy=0;strokeColor=#788AA3;fontColor=#000000;fillColor=#B2C9AB;labelBackgroundColor=none;fontSize=14;" parent="1" source="144" target="135" edge="1">
          <mxGeometry relative="1" as="geometry" />
        </mxCell>
        <mxCell id="154" style="edgeStyle=orthogonalEdgeStyle;rounded=1;orthogonalLoop=1;jettySize=auto;html=1;exitX=1;exitY=0.5;exitDx=0;exitDy=0;strokeColor=#788AA3;fontColor=#000000;fillColor=#B2C9AB;labelBackgroundColor=none;fontSize=14;" parent="1" source="144" target="147" edge="1">
          <mxGeometry relative="1" as="geometry" />
        </mxCell>
        <mxCell id="144" value="SegmentEventClientFile" style="rounded=1;whiteSpace=wrap;html=1;strokeColor=#82b366;fillColor=#d5e8d4;labelBackgroundColor=none;fontSize=14;" parent="1" vertex="1">
          <mxGeometry x="213" y="680" width="155" height="60" as="geometry" />
        </mxCell>
        <mxCell id="147" value="tmp/log" style="rounded=1;whiteSpace=wrap;html=1;labelBackgroundColor=none;fontSize=14;" parent="1" vertex="1">
          <mxGeometry x="433" y="680" width="120" height="60" as="geometry" />
        </mxCell>
        <mxCell id="149" value="api" style="rounded=1;whiteSpace=wrap;html=1;labelBackgroundColor=none;fontSize=14;" parent="1" vertex="1">
          <mxGeometry x="433" y="520" width="120" height="60" as="geometry" />
        </mxCell>
        <mxCell id="142" value="SegmentEventClientSocket" style="rounded=1;whiteSpace=wrap;html=1;strokeColor=#82b366;fillColor=#d5e8d4;labelBackgroundColor=none;fontSize=14;" parent="1" vertex="1">
          <mxGeometry x="213" y="595" width="180" height="60" as="geometry" />
        </mxCell>
        <mxCell id="162" style="edgeStyle=orthogonalEdgeStyle;rounded=1;orthogonalLoop=1;jettySize=auto;html=1;labelBackgroundColor=none;strokeColor=#788AA3;fontColor=#000000;fontSize=14;" parent="1" source="161" target="116" edge="1">
          <mxGeometry relative="1" as="geometry" />
        </mxCell>
        <mxCell id="178" style="edgeStyle=elbowEdgeStyle;html=1;entryX=0.5;entryY=1;entryDx=0;entryDy=0;elbow=vertical;strokeColor=#788AA3;" parent="1" source="161" target="107" edge="1">
          <mxGeometry relative="1" as="geometry" />
        </mxCell>
        <mxCell id="181" value="implement" style="edgeLabel;html=1;align=center;verticalAlign=middle;resizable=0;points=[];fontSize=14;rounded=1;" parent="178" vertex="1" connectable="0">
          <mxGeometry x="-0.1542" y="2" relative="1" as="geometry">
            <mxPoint as="offset" />
          </mxGeometry>
        </mxCell>
        <mxCell id="161" value="RabbitRemoteStore" style="rounded=1;whiteSpace=wrap;html=1;strokeColor=#82b366;fillColor=#d5e8d4;labelBackgroundColor=none;fontSize=14;" parent="1" vertex="1">
          <mxGeometry x="-250" y="190" width="120" height="60" as="geometry" />
        </mxCell>
        <mxCell id="164" style="edgeStyle=orthogonalEdgeStyle;rounded=1;orthogonalLoop=1;jettySize=auto;html=1;labelBackgroundColor=none;strokeColor=#788AA3;fontColor=#000000;fontSize=14;" parent="1" source="163" target="126" edge="1">
          <mxGeometry relative="1" as="geometry" />
        </mxCell>
        <mxCell id="179" style="edgeStyle=elbowEdgeStyle;html=1;entryX=0.5;entryY=1;entryDx=0;entryDy=0;elbow=vertical;strokeColor=#788AA3;" parent="1" source="163" target="107" edge="1">
          <mxGeometry relative="1" as="geometry" />
        </mxCell>
        <mxCell id="163" value="ReactorLocalStore" style="rounded=1;whiteSpace=wrap;html=1;strokeColor=#82b366;fillColor=#d5e8d4;labelBackgroundColor=none;fontSize=14;" parent="1" vertex="1">
          <mxGeometry x="-30" y="190" width="120" height="60" as="geometry" />
        </mxCell>
        <mxCell id="184" style="edgeStyle=orthogonalEdgeStyle;rounded=1;orthogonalLoop=1;jettySize=auto;html=1;exitX=1;exitY=0.5;exitDx=0;exitDy=0;" parent="1" source="183" target="140" edge="1">
          <mxGeometry relative="1" as="geometry" />
        </mxCell>
        <mxCell id="185" value="implement" style="edgeLabel;html=1;align=center;verticalAlign=middle;resizable=0;points=[];rounded=1;" parent="184" vertex="1" connectable="0">
          <mxGeometry x="0.0167" y="1" relative="1" as="geometry">
            <mxPoint x="4" y="-9" as="offset" />
          </mxGeometry>
        </mxCell>
        <mxCell id="183" value="PrometheusMetricsCounter" style="rounded=1;whiteSpace=wrap;html=1;strokeColor=#82b366;fillColor=#d5e8d4;labelBackgroundColor=none;fontSize=14;" parent="1" vertex="1">
          <mxGeometry x="-770" y="480" width="180" height="60" as="geometry" />
        </mxCell>
        <mxCell id="188" style="edgeStyle=orthogonalEdgeStyle;rounded=1;orthogonalLoop=1;jettySize=auto;html=1;exitX=1;exitY=0.5;exitDx=0;exitDy=0;entryX=0;entryY=0.5;entryDx=0;entryDy=0;" edge="1" parent="1" source="187" target="140">
          <mxGeometry relative="1" as="geometry" />
        </mxCell>
        <mxCell id="187" value="SpringPrometheusMetricsCounter" style="rounded=1;whiteSpace=wrap;html=1;strokeColor=#82b366;fillColor=#d5e8d4;labelBackgroundColor=none;fontSize=14;" vertex="1" parent="1">
          <mxGeometry x="-770" y="570" width="220" height="60" as="geometry" />
        </mxCell>
        <mxCell id="197" style="edgeStyle=orthogonalEdgeStyle;rounded=1;orthogonalLoop=1;jettySize=auto;html=1;exitX=0.5;exitY=0;exitDx=0;exitDy=0;entryX=0.5;entryY=1;entryDx=0;entryDy=0;" edge="1" parent="1" source="196" target="107">
          <mxGeometry relative="1" as="geometry" />
        </mxCell>
        <mxCell id="198" value="implement" style="edgeLabel;html=1;align=center;verticalAlign=middle;resizable=0;points=[];" vertex="1" connectable="0" parent="197">
          <mxGeometry x="0.2111" y="-1" relative="1" as="geometry">
            <mxPoint x="-24" as="offset" />
          </mxGeometry>
        </mxCell>
        <mxCell id="202" value="" style="edgeStyle=orthogonalEdgeStyle;rounded=1;orthogonalLoop=1;jettySize=auto;html=1;" edge="1" parent="1" source="196" target="201">
          <mxGeometry relative="1" as="geometry" />
        </mxCell>
        <mxCell id="196" value="ClickHouseStore" style="rounded=1;whiteSpace=wrap;html=1;strokeColor=#82b366;fillColor=#d5e8d4;labelBackgroundColor=none;fontSize=14;" vertex="1" parent="1">
          <mxGeometry x="170" y="190" width="120" height="60" as="geometry" />
        </mxCell>
        <mxCell id="201" value="dbStore" style="rounded=1;whiteSpace=wrap;html=1;strokeColor=#82b366;fillColor=#d5e8d4;labelBackgroundColor=none;fontSize=14;" vertex="1" parent="1">
          <mxGeometry x="170" y="330" width="120" height="60" as="geometry" />
        </mxCell>
      </root>
    </mxGraphModel>
  </diagram>
</mxfile>
